<svg xmlns="http://www.w3.org/2000/svg" width="18" height="18" viewBox="0 0 24 24" fill="currentColor"><path d="M12 2.2c3.2 0 3.6 0 4.9.1 1.2.1 1.9.2 2.4.4.6.2 1 .4 1.5.8.5.4.8.9 1 1.5.2.5.3 1.2.4 2.4.1 1.3.1 1.7.1 4.9s0 3.6-.1 4.9c-.1 1.2-.2 1.9-.4 2.4-.2.6-.4 1-.8 1.5-.4.5-.9.8-1.5 1-.5.2-1.2.3-2.4.4-1.3.1-1.7.1-4.9.1s-3.5 0-4.9-.1c-1-.1-1.9-.2-2.4-.4-.6-.2-1-.4-1.5-.8-.5-.4-.8-.9-1-1.5-.2-.5-.3-1.2-.4-2.4C2.2 15.6 2.2 15.2 2.2 12s0-3.6.1-4.9c.1-1.2.2-1.9.3-2.4.2-.6.4-1 .8-1.5.4-.5.9-.8 1.5-1 .5-.2 1.2-.3 2.4-.4C8.4 2.2 8.8 2.2 12 2.2zm0 1.8c-3.1 0-3.5 0-4.7.1-1 .1-1.5.2-1.8.3-.4.2-.6.3-.9.6-.3.3-.5.5-.6.9-.1.3-.2.8-.3 1.8-.1 1.2-.1 1.6-.1 4.7s0 3.5.1 4.7c.1 1 .2 1.5.3 1.8.2.4.3.6.6.9.3.3.5.5.9.6.3.1.8.2 1.8.3 1.2.1 1.6.1 4.7.1s3.5 0 4.7-.1c1-.1 1.5-.2 1.8-.3.4-.2.6-.3.9-.6.3-.3.5-.5.6-.9.1-.3.2-.8.3-1.8.1-1.2.1-1.6.1-4.7s0-3.5-.1-4.7c-.1-1-.2-1.5-.3-1.8-.2-.4-.3-.6-.6-.9-.3-.3-.5-.5-.9-.6-.3-.1-.8-.2-1.8-.3-1.2-.1-1.6-.1-4.7-.1zm0 3a5 5 0 110 10 5 5 0 010-10zm0 1.8a3.2 3.2 0 100 6.4 3.2 3.2 0 000-6.4zm5.5-2.2a1.2 1.2 0 110 2.4 1.2 1.2 0 010-2.4z"/></svg>
